<?xml version="1.0" standalone="no"?>
<!DOCTYPE svg PUBLIC "-//W3C//DTD SVG 20010904//EN"
 "http://www.w3.org/TR/2001/REC-SVG-20010904/DTD/svg10.dtd">
<svg version="1.0" xmlns="http://www.w3.org/2000/svg"
 width="336.000000pt" height="240.000000pt" viewBox="0 0 336.000000 240.000000"
 preserveAspectRatio="xMidYMid meet">

<g transform="translate(0.000000,240.000000) scale(0.100000,-0.100000)"
fill="#000000" stroke="none">
<path d="M796 1989 c-3 -34 -6 -115 -6 -181 0 -137 12 -177 62 -208 l33 -20
-32 0 c-36 0 -78 42 -87 87 -3 16 -8 104 -12 197 l-6 169 -72 -6 c-67 -5 -146
-31 -146 -49 0 -17 -65 -80 -103 -99 -21 -11 -71 -27 -111 -35 -105 -22 -176
-44 -176 -55 0 -24 62 -129 90 -152 38 -32 79 -43 190 -51 166 -13 183 -22
234 -130 67 -142 126 -322 126 -386 0 -122 80 -232 236 -323 l81 -48 11 -77
c32 -209 29 -222 -59 -281 -33 -22 -68 -43 -79 -46 -26 -8 -25 -27 3 -53 20
-19 35 -22 113 -22 l90 0 57 118 c55 115 57 119 67 242 20 240 27 260 54 154
l13 -49 84 1 c61 1 130 12 254 42 213 52 438 85 528 79 63 -4 71 -8 140 -59
39 -31 108 -77 152 -103 111 -66 135 -90 135 -134 -1 -89 -70 -173 -172 -211
-33 -11 -37 -39 -10 -63 15 -13 39 -17 116 -17 l97 0 49 102 c28 56 50 109 50
118 0 26 21 80 31 80 5 0 9 -31 9 -69 0 -60 -4 -74 -26 -100 -43 -51 -16 -92
61 -93 73 -2 78 9 86 169 4 76 7 140 8 142 0 1 32 -28 70 -67 67 -67 154 -122
195 -122 15 0 3 17 -50 73 -146 151 -203 252 -229 407 -45 275 -145 386 -390
434 -109 21 -301 34 -605 41 -281 7 -390 19 -579 66 -184 45 -178 41 -240 153
l-53 96 22 53 c29 66 50 143 50 184 0 31 0 31 -166 97 -92 36 -170 66 -174 66
-4 0 -10 -28 -14 -61z m2032 -1085 c54 -126 93 -236 87 -242 -8 -8 -70 26 -91
50 -35 38 -72 286 -42 276 7 -3 28 -40 46 -84z"/>
</g>
</svg>
