<?xml version="1.0" standalone="no"?>
<!DOCTYPE svg PUBLIC "-//W3C//DTD SVG 20010904//EN"
 "http://www.w3.org/TR/2001/REC-SVG-20010904/DTD/svg10.dtd">
<svg version="1.0" xmlns="http://www.w3.org/2000/svg"
 width="250.000000pt" height="241.000000pt" viewBox="0 0 250.000000 241.000000"
 preserveAspectRatio="xMidYMid meet">

<g transform="translate(0.000000,241.000000) scale(0.100000,-0.100000)"
fill="#000000" stroke="none">
<path d="M463 2208 c-39 -8 -75 -35 -115 -85 -12 -16 -32 -23 -85 -28 -109
-10 -113 -13 -113 -89 0 -86 13 -110 81 -151 62 -39 88 -43 123 -20 18 12 30
13 50 6 44 -17 95 -72 107 -113 16 -63 9 -167 -15 -208 -17 -29 -21 -51 -20
-125 0 -78 5 -100 33 -166 17 -42 52 -107 77 -145 87 -132 127 -235 159 -409
9 -49 25 -135 35 -190 36 -198 37 -190 -15 -209 -18 -7 -18 -5 3 14 19 18 22
28 16 58 -9 51 -14 53 -14 4 0 -32 -4 -42 -20 -47 -17 -5 -20 -15 -20 -59 0
-28 5 -57 12 -64 7 -7 44 -12 94 -12 102 0 119 12 109 74 -19 121 -19 123 5
129 18 5 21 10 15 29 -44 139 -58 234 -76 518 -10 165 -9 189 5 220 16 35 16
34 12 -52 -5 -87 -5 -88 20 -94 35 -9 216 23 316 57 48 15 135 53 193 84 83
43 115 55 151 55 55 0 96 -20 112 -55 19 -40 14 -53 -7 -21 -21 31 -56 55 -82
56 -26 0 -113 -28 -134 -45 -18 -14 -15 -15 40 -12 l60 2 0 -42 c0 -23 3 -44
7 -48 3 -4 34 3 68 16 35 12 64 18 68 13 4 -5 21 -49 37 -98 24 -75 38 -99 83
-147 29 -32 90 -84 134 -116 164 -117 261 -193 276 -215 12 -16 18 -52 20
-120 l4 -97 -38 -18 c-41 -19 -56 -52 -35 -77 14 -16 83 -28 115 -20 32 8 38
63 29 269 -6 154 -7 160 -31 180 -50 40 -101 100 -125 144 -23 43 -25 59 -30
231 -3 114 -2 156 3 110 4 -41 8 -122 9 -179 1 -121 16 -163 81 -226 34 -33
40 -36 40 -19 0 11 -16 35 -35 54 -19 19 -40 50 -45 70 -6 19 -13 129 -17 245
-8 285 -17 307 -165 410 -184 130 -308 162 -668 174 -262 9 -298 17 -393 87
-40 29 -55 50 -88 121 -81 177 -199 342 -269 378 -37 18 -99 24 -147 13z m26
-213 c-2 -128 11 -165 56 -165 25 0 30 10 55 115 9 39 9 38 5 -12 -10 -102
-38 -138 -85 -113 -40 21 -52 72 -44 186 4 57 8 104 11 104 2 0 3 -52 2 -115z
m171 -311 c-25 -14 -67 -46 -94 -72 -26 -26 -44 -38 -38 -27 15 28 81 90 117
108 50 27 63 19 15 -9z m1487 -501 c-3 -10 -5 -4 -5 12 0 17 2 24 5 18 2 -7 2
-21 0 -30z"/>
<path d="M711 694 c0 -11 3 -14 6 -6 3 7 2 16 -1 19 -3 4 -6 -2 -5 -13z"/>
<path d="M2184 432 l6 -82 -35 -21 c-62 -37 -56 -99 9 -99 53 0 76 34 76 111
0 80 -14 130 -42 155 l-21 19 7 -83z"/>
</g>
</svg>
