<?xml version="1.0" standalone="no"?>
<!DOCTYPE svg PUBLIC "-//W3C//DTD SVG 20010904//EN"
 "http://www.w3.org/TR/2001/REC-SVG-20010904/DTD/svg10.dtd">
<svg version="1.0" xmlns="http://www.w3.org/2000/svg"
 width="215.000000pt" height="163.000000pt" viewBox="0 0 215.000000 163.000000"
 preserveAspectRatio="xMidYMid meet">

<g transform="translate(0.000000,163.000000) scale(0.100000,-0.100000)"
fill="#000000" stroke="none">
<path d="M354 1460 c-11 -4 -32 -24 -47 -44 -28 -35 -98 -66 -154 -66 -19 0
-23 -5 -23 -32 0 -39 29 -90 64 -113 14 -9 56 -25 94 -34 65 -17 120 -40 96
-41 -6 0 4 -29 22 -65 23 -45 34 -84 38 -132 14 -159 28 -248 51 -321 33 -105
47 -209 36 -268 -8 -39 -18 -56 -60 -95 -59 -55 -66 -79 -21 -79 20 0 30 5 30
15 0 8 20 34 45 57 73 69 88 153 59 322 -5 26 -4 37 3 33 18 -11 36 -134 31
-207 -6 -82 -36 -149 -78 -173 -48 -29 -39 -47 24 -47 l53 0 32 68 c17 38 31
73 31 79 0 29 54 170 79 207 43 62 81 74 241 79 74 3 149 10 166 16 30 12 33
10 100 -56 41 -41 99 -84 143 -108 82 -44 106 -69 122 -128 14 -53 6 -89 -28
-124 l-28 -28 59 -3 c32 -2 63 1 67 5 11 11 31 191 24 212 -3 10 -48 43 -100
75 -92 57 -154 110 -143 121 3 3 41 -20 84 -51 44 -31 105 -69 137 -85 135
-69 215 -192 157 -244 -32 -29 -24 -35 40 -35 l60 0 2 48 c5 137 -7 171 -86
257 -75 81 -102 135 -116 229 -6 43 -18 100 -26 125 -18 61 -19 58 24 80 20
10 73 52 117 92 44 41 98 89 120 107 34 28 36 32 15 26 -14 -3 -50 -20 -80
-37 -111 -61 -129 -68 -196 -79 -111 -17 -471 -4 -574 21 -232 56 -305 101
-381 237 -18 31 -37 58 -44 60 -14 6 -66 -25 -126 -73 -47 -38 -93 -44 -109
-14 -5 11 -9 41 -9 68 l1 48 8 -51 c4 -29 11 -57 14 -63 13 -20 42 -11 64 19
13 16 44 41 70 54 54 27 78 65 62 96 -20 38 -194 66 -256 40z"/>
</g>
</svg>
